<?xml version="1.0" standalone="no"?>
<svg xmlns:xlink="http://www.w3.org/1999/xlink" id="wave" style="transform:rotate(180deg); transition: 0.3s" viewBox="0 0 1440 100" version="1.1" xmlns="http://www.w3.org/2000/svg"><defs><linearGradient id="sw-gradient-0" x1="0" x2="0" y1="1" y2="0"><stop stop-color="rgba(102, 252, 241, 1)" offset="0%"/><stop stop-color="rgba(102, 252, 241, 1)" offset="100%"/></linearGradient></defs><path style="transform:translate(0, 0px); opacity:1" fill="url(#sw-gradient-0)" d="M0,80L34.3,75C68.6,70,137,60,206,51.7C274.3,43,343,37,411,40C480,43,549,57,617,53.3C685.7,50,754,30,823,31.7C891.4,33,960,57,1029,70C1097.1,83,1166,87,1234,76.7C1302.9,67,1371,43,1440,41.7C1508.6,40,1577,60,1646,58.3C1714.3,57,1783,33,1851,21.7C1920,10,1989,10,2057,8.3C2125.7,7,2194,3,2263,1.7C2331.4,0,2400,0,2469,6.7C2537.1,13,2606,27,2674,33.3C2742.9,40,2811,40,2880,43.3C2948.6,47,3017,53,3086,48.3C3154.3,43,3223,27,3291,25C3360,23,3429,37,3497,35C3565.7,33,3634,17,3703,13.3C3771.4,10,3840,20,3909,31.7C3977.1,43,4046,57,4114,55C4182.9,53,4251,37,4320,38.3C4388.6,40,4457,60,4526,60C4594.3,60,4663,40,4731,28.3C4800,17,4869,13,4903,11.7L4937.1,10L4937.1,100L4902.9,100C4868.6,100,4800,100,4731,100C4662.9,100,4594,100,4526,100C4457.1,100,4389,100,4320,100C4251.4,100,4183,100,4114,100C4045.7,100,3977,100,3909,100C3840,100,3771,100,3703,100C3634.3,100,3566,100,3497,100C3428.6,100,3360,100,3291,100C3222.9,100,3154,100,3086,100C3017.1,100,2949,100,2880,100C2811.4,100,2743,100,2674,100C2605.7,100,2537,100,2469,100C2400,100,2331,100,2263,100C2194.3,100,2126,100,2057,100C1988.6,100,1920,100,1851,100C1782.9,100,1714,100,1646,100C1577.1,100,1509,100,1440,100C1371.4,100,1303,100,1234,100C1165.7,100,1097,100,1029,100C960,100,891,100,823,100C754.3,100,686,100,617,100C548.6,100,480,100,411,100C342.9,100,274,100,206,100C137.1,100,69,100,34,100L0,100Z"/></svg>